<svg xmlns="http://www.w3.org/2000/svg" id="구성_요소_15_1" width="38" height="41" viewBox="0 0 38 41">
    <defs>
        <style>
            .cls-3{stroke:#4a4a4a;stroke-width:2px;fill:none;stroke-linecap:round}.cls-4{stroke:none}
        </style>
    </defs>
    <g id="사각형_1481" fill="#fff" stroke="#4a4a4a" stroke-width="2px" transform="translate(4)">
        <rect width="34" height="38" class="cls-4" rx="4"/>
        <rect width="32" height="36" x="1" y="1" fill="none" rx="3"/>
    </g>
    <g id="패스_31" fill="#f33328">
        <path d="M6.55 13.302c-1.577 0-2.98-.497-3.951-1.399C1.553 10.931 1 9.496 1 7.753c0-1.515 1.074-4.2 3.025-7.56.909-1.566 1.844-2.997 2.49-3.95.825 1.235 2.166 3.269 3.33 5.399 1.862 3.409 2.253 5.205 2.253 6.111 0 1.745-.553 3.18-1.598 4.151-.97.902-2.374 1.398-3.95 1.398z" class="cls-4" transform="translate(0 26.698)"/>
        <path fill="#4a4a4a" d="M6.513-1.944C6.003-1.156 5.425-.23 4.86.746 2.279 5.204 2 7.131 2 7.753c0 1.479.43 2.629 1.28 3.418.785.73 1.946 1.131 3.27 1.131 1.342 0 2.473-.39 3.269-1.13.849-.789 1.28-1.939 1.28-3.419 0-.647-.278-2.238-2.132-5.632C8.158.641 7.26-.797 6.513-1.944m.037-3.603v.001c-.074.126 6.548 9.006 6.548 13.299 0 4.292-2.932 6.55-6.549 6.55C2.932 14.302 0 12.041 0 7.752c0-4.259 6.53-13.3 6.55-13.3z" transform="translate(0 26.698)"/>
    </g>
    <path id="선_93" d="M0 0L21.138 0" class="cls-3" transform="translate(10.017 7.613)"/>
    <path id="선_94" d="M0 0L21.138 0" class="cls-3" transform="translate(10.017 13.041)"/>
    <path id="선_95" d="M0 0L19.536 0" class="cls-3" transform="translate(11.62 19.385)"/>
    <path id="선_96" d="M0 0L16.056 0" class="cls-3" transform="translate(14.825 25.729)"/>
    <path id="선_97" d="M0 0L12.603 0" class="cls-3" transform="translate(18.031 32.074)"/>
</svg>
